<svg xmlns="http://www.w3.org/2000/svg" width="11.261" height="20" viewBox="0 0 11.261 20">
  <g id="chevron.backward" opacity="0.8">
    <rect id="Rectangle_43" data-name="Rectangle 43" width="11.261" height="20" transform="translate(0)" fill="#1c1c1c" opacity="0"/>
    <path id="Path_19" data-name="Path 19" d="M0,9.994a1.037,1.037,0,0,0,.322.76l9.131,8.923a.99.99,0,0,0,.748.311,1.033,1.033,0,0,0,1.059-1.048,1.082,1.082,0,0,0-.311-.748l-8.383-8.2,8.383-8.2a1.1,1.1,0,0,0,.311-.748A1.067,1.067,0,0,0,9.454.3L.322,9.234A1.019,1.019,0,0,0,0,9.994Z" transform="translate(0)" fill="#1c1c1c"/>
  </g>
</svg>
